<?xml version="1.0" encoding="UTF-8" standalone="no"?><!DOCTYPE svg PUBLIC "-//W3C//DTD SVG 1.1//EN" "http://www.w3.org/Graphics/SVG/1.1/DTD/svg11.dtd"><!-- Generated by graphviz version 2.40.1 (20161225.0304)
 --><!-- Title: G Pages: 1 --><svg xmlns="http://www.w3.org/2000/svg" xmlns:xlink="http://www.w3.org/1999/xlink" width="156pt" height="404pt" viewBox="0.00 0.00 155.57 404.00">
<g id="graph0" class="graph" transform="scale(1 1) rotate(0) translate(4 400)">
<title>G</title>
<polygon fill="#ffffff" stroke="transparent" points="-4,4 -4,-400 151.5747,-400 151.5747,4 -4,4"/>
<!-- containerd_shim -->
<g id="node1" class="node">
<title>containerd_shim</title>
<ellipse fill="none" stroke="#000000" cx="73.7873" cy="-162" rx="73.5753" ry="18"/>
<text text-anchor="middle" x="73.7873" y="-157.8" font-family="Times,serif" font-size="14.00" fill="#000000">containerd-shim</text>
</g>
<!-- runc -->
<g id="node4" class="node">
<title>runc</title>
<ellipse fill="none" stroke="#0000ff" cx="73.7873" cy="-90" rx="28.3913" ry="18"/>
<text text-anchor="middle" x="73.7873" y="-85.8" font-family="Times,serif" font-size="14.00" fill="#000000">runc</text>
</g>
<!-- containerd_shim&#45;&gt;runc -->
<g id="edge3" class="edge">
<title>containerd_shim-&gt;runc</title>
<path fill="none" stroke="#000000" d="M73.7873,-143.8314C73.7873,-136.131 73.7873,-126.9743 73.7873,-118.4166"/>
<polygon fill="#000000" stroke="#000000" points="77.2874,-118.4132 73.7873,-108.4133 70.2874,-118.4133 77.2874,-118.4132"/>
</g>
<!-- dockerd -->
<g id="node2" class="node">
<title>dockerd</title>
<polygon fill="none" stroke="#000000" points="66.3772,-324 5.1975,-324 5.1975,-288 66.3772,-288 66.3772,-324"/>
<text text-anchor="middle" x="35.7873" y="-301.8" font-family="Times,serif" font-size="14.00" fill="#000000">dockerd</text>
</g>
<!-- containerd -->
<g id="node6" class="node">
<title>containerd</title>
<ellipse fill="none" stroke="#000000" cx="73.7873" cy="-234" rx="51.5862" ry="18"/>
<text text-anchor="middle" x="73.7873" y="-229.8" font-family="Times,serif" font-size="14.00" fill="#000000">containerd</text>
</g>
<!-- dockerd&#45;&gt;containerd -->
<g id="edge1" class="edge">
<title>dockerd-&gt;containerd</title>
<path fill="none" stroke="#000000" d="M45.3763,-287.8314C49.6844,-279.6688 54.8559,-269.87 59.5992,-260.8827"/>
<polygon fill="#000000" stroke="#000000" points="62.7607,-262.3909 64.333,-251.9134 56.57,-259.1236 62.7607,-262.3909"/>
</g>
<!-- docker -->
<g id="node3" class="node">
<title>docker</title>
<polygon fill="none" stroke="#000000" points="62.8772,-396 8.6975,-396 8.6975,-360 62.8772,-360 62.8772,-396"/>
<text text-anchor="middle" x="35.7873" y="-373.8" font-family="Times,serif" font-size="14.00" fill="#000000">docker</text>
</g>
<!-- docker&#45;&gt;dockerd -->
<g id="edge5" class="edge">
<title>docker-&gt;dockerd</title>
<path fill="none" stroke="#000000" d="M35.7873,-359.8314C35.7873,-352.131 35.7873,-342.9743 35.7873,-334.4166"/>
<polygon fill="#000000" stroke="#000000" points="39.2874,-334.4132 35.7873,-324.4133 32.2874,-334.4133 39.2874,-334.4132"/>
</g>
<!-- container -->
<g id="node7" class="node">
<title>container</title>
<ellipse fill="none" stroke="#000000" cx="73.7873" cy="-18" rx="46.9284" ry="18"/>
<text text-anchor="middle" x="73.7873" y="-13.8" font-family="Times,serif" font-size="14.00" fill="#000000">container</text>
</g>
<!-- runc&#45;&gt;container -->
<g id="edge4" class="edge">
<title>runc-&gt;container</title>
<path fill="none" stroke="#000000" d="M73.7873,-71.8314C73.7873,-64.131 73.7873,-54.9743 73.7873,-46.4166"/>
<polygon fill="#000000" stroke="#000000" points="77.2874,-46.4132 73.7873,-36.4133 70.2874,-46.4133 77.2874,-46.4132"/>
</g>
<!-- ctr -->
<g id="node5" class="node">
<title>ctr</title>
<ellipse fill="none" stroke="#000000" stroke-dasharray="5,2" cx="111.7873" cy="-306" rx="27" ry="18"/>
<text text-anchor="middle" x="111.7873" y="-301.8" font-family="Times,serif" font-size="14.00" fill="#000000">ctr</text>
</g>
<!-- ctr&#45;&gt;containerd -->
<g id="edge6" class="edge">
<title>ctr-&gt;containerd</title>
<path fill="none" stroke="#000000" d="M102.7819,-288.937C98.3704,-280.5785 92.9541,-270.3159 88.0017,-260.9325"/>
<polygon fill="#000000" stroke="#000000" points="91.0214,-259.1554 83.2584,-251.9453 84.8307,-262.4228 91.0214,-259.1554"/>
</g>
<!-- containerd&#45;&gt;containerd_shim -->
<g id="edge2" class="edge">
<title>containerd-&gt;containerd_shim</title>
<path fill="none" stroke="#000000" d="M73.7873,-215.8314C73.7873,-208.131 73.7873,-198.9743 73.7873,-190.4166"/>
<polygon fill="#000000" stroke="#000000" points="77.2874,-190.4132 73.7873,-180.4133 70.2874,-190.4133 77.2874,-190.4132"/>
</g>
</g>
</svg>