<?xml version="1.0" encoding="UTF-8" standalone="no"?><!DOCTYPE svg PUBLIC "-//W3C//DTD SVG 1.1//EN" "http://www.w3.org/Graphics/SVG/1.1/DTD/svg11.dtd"><!-- Generated by graphviz version 2.40.1 (20161225.0304)
 --><!-- Title: G Pages: 1 --><svg xmlns="http://www.w3.org/2000/svg" xmlns:xlink="http://www.w3.org/1999/xlink" width="735pt" height="260pt" viewBox="0.00 0.00 734.90 260.00">
<g id="graph0" class="graph" transform="scale(1 1) rotate(0) translate(4 256)">
<title>G</title>
<polygon fill="#ffffff" stroke="transparent" points="-4,4 -4,-256 730.9013,-256 730.9013,4 -4,4"/>
<!-- root -->
<g id="node1" class="node">
<title>root</title>
<ellipse fill="none" stroke="#000000" cx="505.2791" cy="-234" rx="27" ry="18"/>
<text text-anchor="middle" x="505.2791" y="-229.8" font-family="Times,serif" font-size="14.00" fill="#000000">root</text>
</g>
<!-- cg1 -->
<g id="node2" class="node">
<title>cg1</title>
<ellipse fill="none" stroke="#000000" cx="290.2791" cy="-162" rx="27" ry="18"/>
<text text-anchor="middle" x="290.2791" y="-157.8" font-family="Times,serif" font-size="14.00" fill="#000000">cg1</text>
</g>
<!-- root&#45;&gt;cg1 -->
<g id="edge1" class="edge">
<title>root-&gt;cg1</title>
<path fill="none" stroke="#000000" d="M481.0338,-225.8806C442.6235,-213.0177 367.6753,-187.9187 324.0325,-173.3035"/>
<polygon fill="#000000" stroke="#000000" points="325.0297,-169.9464 314.4358,-170.0897 322.8068,-176.5841 325.0297,-169.9464"/>
</g>
<!-- cg2 -->
<g id="node3" class="node">
<title>cg2</title>
<ellipse fill="none" stroke="#000000" cx="505.2791" cy="-162" rx="27" ry="18"/>
<text text-anchor="middle" x="505.2791" y="-157.8" font-family="Times,serif" font-size="14.00" fill="#000000">cg2</text>
</g>
<!-- root&#45;&gt;cg2 -->
<g id="edge2" class="edge">
<title>root-&gt;cg2</title>
<path fill="none" stroke="#000000" d="M505.2791,-215.8314C505.2791,-208.131 505.2791,-198.9743 505.2791,-190.4166"/>
<polygon fill="#000000" stroke="#000000" points="508.7792,-190.4132 505.2791,-180.4133 501.7792,-190.4133 508.7792,-190.4132"/>
</g>
<!-- leaf -->
<g id="node8" class="node">
<title>leaf</title>
<polygon fill="none" stroke="#000000" points="586.2791,-180 550.1303,-162 586.2791,-144 622.4279,-162 586.2791,-180"/>
<text text-anchor="middle" x="586.2791" y="-157.8" font-family="Times,serif" font-size="14.00" fill="#000000">leaf</text>
</g>
<!-- root&#45;&gt;leaf -->
<g id="edge7" class="edge">
<title>root-&gt;leaf</title>
<path fill="none" stroke="#000000" stroke-dasharray="5,2" d="M521.6707,-219.4297C534.3457,-208.1631 551.9739,-192.4936 565.6152,-180.368"/>
<polygon fill="#000000" stroke="#000000" points="567.9698,-182.9578 573.1187,-173.6982 563.3193,-177.7259 567.9698,-182.9578"/>
</g>
<!-- cg1_1 -->
<g id="node4" class="node">
<title>cg1_1</title>
<ellipse fill="none" stroke="#000000" cx="133.2791" cy="-90" rx="34.7748" ry="18"/>
<text text-anchor="middle" x="133.2791" y="-85.8" font-family="Times,serif" font-size="14.00" fill="#000000">cg1_1</text>
</g>
<!-- cg1&#45;&gt;cg1_1 -->
<g id="edge3" class="edge">
<title>cg1-&gt;cg1_1</title>
<path fill="none" stroke="#000000" d="M267.7848,-151.6842C241.9249,-139.8248 199.1453,-120.2062 168.78,-106.2807"/>
<polygon fill="#000000" stroke="#000000" points="169.9433,-102.9637 159.3945,-101.9765 167.0252,-109.3265 169.9433,-102.9637"/>
</g>
<!-- cg1_2 -->
<g id="node5" class="node">
<title>cg1_2</title>
<ellipse fill="none" stroke="#000000" cx="232.2791" cy="-90" rx="34.7748" ry="18"/>
<text text-anchor="middle" x="232.2791" y="-85.8" font-family="Times,serif" font-size="14.00" fill="#000000">cg1_2</text>
</g>
<!-- cg1&#45;&gt;cg1_2 -->
<g id="edge4" class="edge">
<title>cg1-&gt;cg1_2</title>
<path fill="none" stroke="#000000" d="M277.407,-146.0209C269.9809,-136.8022 260.4859,-125.0153 252.1229,-114.6337"/>
<polygon fill="#000000" stroke="#000000" points="254.7188,-112.277 245.7199,-106.6851 249.2675,-116.6683 254.7188,-112.277"/>
</g>
<!-- leaf_cg1 -->
<g id="node9" class="node">
<title>leaf_cg1</title>
<polygon fill="none" stroke="#000000" points="347.2791,-108 284.5346,-90 347.2791,-72 410.0236,-90 347.2791,-108"/>
<text text-anchor="middle" x="347.2791" y="-85.8" font-family="Times,serif" font-size="14.00" fill="#000000">leaf_cg1</text>
</g>
<!-- cg1&#45;&gt;leaf_cg1 -->
<g id="edge8" class="edge">
<title>cg1-&gt;leaf_cg1</title>
<path fill="none" stroke="#000000" stroke-dasharray="5,2" d="M302.9293,-146.0209C310.5897,-136.3445 320.4902,-123.8387 328.9929,-113.0984"/>
<polygon fill="#000000" stroke="#000000" points="331.9798,-114.9642 335.4427,-104.9512 326.4915,-110.6192 331.9798,-114.9642"/>
</g>
<!-- cg2_1 -->
<g id="node6" class="node">
<title>cg2_1</title>
<ellipse fill="none" stroke="#000000" cx="462.2791" cy="-90" rx="34.7748" ry="18"/>
<text text-anchor="middle" x="462.2791" y="-85.8" font-family="Times,serif" font-size="14.00" fill="#000000">cg2_1</text>
</g>
<!-- cg2&#45;&gt;cg2_1 -->
<g id="edge5" class="edge">
<title>cg2-&gt;cg2_1</title>
<path fill="none" stroke="#000000" d="M495.0887,-144.937C489.9695,-136.3654 483.6545,-125.7914 477.9362,-116.2165"/>
<polygon fill="#000000" stroke="#000000" points="480.8274,-114.2315 472.6951,-107.4407 474.8176,-117.8207 480.8274,-114.2315"/>
</g>
<!-- cg2_2 -->
<g id="node7" class="node">
<title>cg2_2</title>
<ellipse fill="none" stroke="#000000" cx="549.2791" cy="-90" rx="34.7748" ry="18"/>
<text text-anchor="middle" x="549.2791" y="-85.8" font-family="Times,serif" font-size="14.00" fill="#000000">cg2_2</text>
</g>
<!-- cg2&#45;&gt;cg2_2 -->
<g id="edge6" class="edge">
<title>cg2-&gt;cg2_2</title>
<path fill="none" stroke="#000000" d="M515.4842,-145.3008C520.771,-136.6496 527.348,-125.8873 533.2911,-116.1623"/>
<polygon fill="#000000" stroke="#000000" points="536.2875,-117.9711 538.5155,-107.6132 530.3145,-114.3209 536.2875,-117.9711"/>
</g>
<!-- leaf_cg2 -->
<g id="node10" class="node">
<title>leaf_cg2</title>
<polygon fill="none" stroke="#000000" points="664.2791,-108 601.5346,-90 664.2791,-72 727.0236,-90 664.2791,-108"/>
<text text-anchor="middle" x="664.2791" y="-85.8" font-family="Times,serif" font-size="14.00" fill="#000000">leaf_cg2</text>
</g>
<!-- cg2&#45;&gt;leaf_cg2 -->
<g id="edge9" class="edge">
<title>cg2-&gt;leaf_cg2</title>
<path fill="none" stroke="#000000" stroke-dasharray="5,2" d="M526.8957,-150.9728C531.6148,-148.6268 536.5978,-146.1963 541.2791,-144 570.7289,-130.1835 604.6021,-115.392 629.3355,-104.7897"/>
<polygon fill="#000000" stroke="#000000" points="630.8497,-107.9488 638.6702,-100.8011 628.0992,-101.5118 630.8497,-107.9488"/>
</g>
<!-- leaf_cg1_1 -->
<g id="node11" class="node">
<title>leaf_cg1_1</title>
<polygon fill="none" stroke="#000000" points="76.2791,-36 .2202,-18 76.2791,0 152.338,-18 76.2791,-36"/>
<text text-anchor="middle" x="76.2791" y="-13.8" font-family="Times,serif" font-size="14.00" fill="#000000">leaf_cg1_1</text>
</g>
<!-- cg1_1&#45;&gt;leaf_cg1_1 -->
<g id="edge10" class="edge">
<title>cg1_1-&gt;leaf_cg1_1</title>
<path fill="none" stroke="#000000" stroke-dasharray="5,2" d="M120.0589,-73.3008C112.5852,-63.8603 103.1213,-51.9058 94.9061,-41.5288"/>
<polygon fill="#000000" stroke="#000000" points="97.5985,-39.2909 88.6473,-33.6229 92.1102,-43.6359 97.5985,-39.2909"/>
</g>
<!-- leaf_cg1_2 -->
<g id="node12" class="node">
<title>leaf_cg1_2</title>
<polygon fill="none" stroke="#000000" points="247.2791,-36 171.2202,-18 247.2791,0 323.338,-18 247.2791,-36"/>
<text text-anchor="middle" x="247.2791" y="-13.8" font-family="Times,serif" font-size="14.00" fill="#000000">leaf_cg1_2</text>
</g>
<!-- cg1_2&#45;&gt;leaf_cg1_2 -->
<g id="edge11" class="edge">
<title>cg1_2-&gt;leaf_cg1_2</title>
<path fill="none" stroke="#000000" stroke-dasharray="5,2" d="M236.0643,-71.8314C237.736,-63.8068 239.7373,-54.2008 241.5835,-45.3392"/>
<polygon fill="#000000" stroke="#000000" points="245.0372,-45.9214 243.6504,-35.4177 238.1844,-44.4937 245.0372,-45.9214"/>
</g>
<!-- leaf_cg2_1 -->
<g id="node13" class="node">
<title>leaf_cg2_1</title>
<polygon fill="none" stroke="#000000" points="447.2791,-36 371.2202,-18 447.2791,0 523.338,-18 447.2791,-36"/>
<text text-anchor="middle" x="447.2791" y="-13.8" font-family="Times,serif" font-size="14.00" fill="#000000">leaf_cg2_1</text>
</g>
<!-- cg2_1&#45;&gt;leaf_cg2_1 -->
<g id="edge12" class="edge">
<title>cg2_1-&gt;leaf_cg2_1</title>
<path fill="none" stroke="#000000" stroke-dasharray="5,2" d="M458.494,-71.8314C456.8222,-63.8068 454.821,-54.2008 452.9748,-45.3392"/>
<polygon fill="#000000" stroke="#000000" points="456.3739,-44.4937 450.9078,-35.4177 449.521,-45.9214 456.3739,-44.4937"/>
</g>
<!-- leaf_cg2_2 -->
<g id="node14" class="node">
<title>leaf_cg2_2</title>
<polygon fill="none" stroke="#000000" points="618.2791,-36 542.2202,-18 618.2791,0 694.338,-18 618.2791,-36"/>
<text text-anchor="middle" x="618.2791" y="-13.8" font-family="Times,serif" font-size="14.00" fill="#000000">leaf_cg2_2</text>
</g>
<!-- cg2_2&#45;&gt;leaf_cg2_2 -->
<g id="edge13" class="edge">
<title>cg2_2-&gt;leaf_cg2_2</title>
<path fill="none" stroke="#000000" stroke-dasharray="5,2" d="M564.9363,-73.6621C574.407,-63.7796 586.6104,-51.0456 596.9544,-40.2519"/>
<polygon fill="#000000" stroke="#000000" points="599.6999,-42.4455 604.0921,-32.8039 594.646,-37.6021 599.6999,-42.4455"/>
</g>
</g>
</svg>